<svg xmlns="http://www.w3.org/2000/svg" xmlns:xlink="http://www.w3.org/1999/xlink" width="794" zoomAndPan="magnify" viewBox="0 0 595.5 842.249979" height="1123" preserveAspectRatio="xMidYMid meet" version="1.0"><defs><clipPath id="20b3a4254d"><path d="M 0.929688 15 L 237 15 L 237 211.542969 L 0.929688 211.542969 Z M 0.929688 15 " clip-rule="nonzero"/></clipPath><clipPath id="2597af6ef3"><path d="M 177 0.902344 L 238.558594 0.902344 L 238.558594 78 L 177 78 Z M 177 0.902344 " clip-rule="nonzero"/></clipPath><clipPath id="1539d6d9df"><rect x="0" width="240" y="0" height="213"/></clipPath></defs><g transform="matrix(1, 0, 0, 1, 117, 120)"><g clip-path="url(#1539d6d9df)"><g clip-path="url(#20b3a4254d)"><path fill="#ff3131" d="M 61.5625 99.242188 C 63.921875 95.480469 68.808594 94.226562 72.683594 96.386719 L 107.289062 115.675781 L 96.082031 118.664062 L 119.859375 79.070312 C 121.011719 77.148438 122.890625 75.773438 125.066406 75.253906 C 127.246094 74.734375 129.542969 75.113281 131.441406 76.304688 L 180.683594 107.253906 L 169.035156 110.132812 L 221.308594 19.941406 C 223.617188 15.960938 228.71875 14.601562 232.699219 16.910156 C 236.683594 19.21875 238.042969 24.320312 235.734375 28.304688 L 183.457031 118.492188 C 182.324219 120.449219 180.441406 121.863281 178.246094 122.402344 C 176.046875 122.945312 173.726562 122.574219 171.808594 121.367188 L 171.808594 121.371094 L 122.570312 90.417969 L 134.148438 87.652344 L 110.375 127.246094 C 108.058594 131.105469 103.101562 132.429688 99.171875 130.238281 L 64.570312 110.949219 L 75.691406 108.09375 L 0.90625 211.742188 Z M 61.5625 99.242188 " fill-opacity="1" fill-rule="nonzero"/></g><g clip-path="url(#2597af6ef3)"><path fill="#ff3131" d="M 193.285156 36.785156 L 238.875 0.96875 L 235.617188 77.917969 C 220.59375 37.109375 220.125 36.867188 220.125 36.867188 L 177.464844 51.070312 L 191.882812 37.890625 Z M 193.285156 36.785156 " fill-opacity="1" fill-rule="nonzero"/></g></g></g></svg>