<svg xmlns="http://www.w3.org/2000/svg" xmlns:xlink="http://www.w3.org/1999/xlink" width="794" zoomAndPan="magnify" viewBox="0 0 595.5 842.249979" height="1123" preserveAspectRatio="xMidYMid meet" version="1.0"><defs><clipPath id="a31de24816"><path d="M 0.507812 0.476562 L 238.132812 0.476562 L 238.132812 172.136719 L 0.507812 172.136719 Z M 0.507812 0.476562 " clip-rule="nonzero"/></clipPath><clipPath id="9bd2456e3f"><rect x="0" width="240" y="0" height="173"/></clipPath></defs><g transform="matrix(1, 0, 0, 1, 178, 141)"><g clip-path="url(#9bd2456e3f)"><g clip-path="url(#a31de24816)"><path fill="#000000" d="M 0.507812 117.175781 C 0.984375 70.390625 40.730469 16.144531 84.574219 0.628906 C 86.605469 0.570312 90.90625 0.160156 88.574219 1.941406 C 74 13.730469 58.914062 36.320312 59.824219 55.773438 C 59.988281 57.855469 60.164062 60.355469 62.007812 61.667969 C 63.617188 62.835938 66.222656 62.917969 68.324219 63.503906 C 89.96875 68.605469 107.144531 87.136719 110.136719 109.367188 C 116.578125 152.945312 68.765625 186.441406 30.171875 165.824219 C 12.367188 156.621094 0.457031 137.527344 0.507812 117.28125 Z M 127.917969 117.175781 C 128.398438 70.390625 168.144531 16.144531 211.984375 0.628906 C 214.015625 0.570312 218.316406 0.160156 215.988281 1.941406 C 201.410156 13.730469 186.328125 36.320312 187.234375 55.773438 C 187.402344 57.855469 187.578125 60.355469 189.421875 61.667969 C 191.027344 62.835938 193.636719 62.917969 195.738281 63.503906 C 217.378906 68.605469 234.554688 87.136719 237.550781 109.367188 C 243.988281 152.945312 196.179688 186.441406 157.582031 165.824219 C 139.785156 156.617188 127.871094 137.523438 127.921875 117.277344 L 127.921875 117.175781 Z M 127.917969 117.175781 " fill-opacity="1" fill-rule="nonzero"/></g></g></g></svg>